<?xml version="1.0" encoding="UTF-8" standalone="no"?>
<!DOCTYPE svg PUBLIC "-//W3C//DTD SVG 1.1//EN"
 "http://www.w3.org/Graphics/SVG/1.1/DTD/svg11.dtd">
<!-- Generated by graphviz version 2.26.0 (20091210.2329)
 -->
<!-- Title: Pipeline: Pages: 1 -->
<svg width="1332pt" height="1474pt"
 viewBox="0.00 0.00 1332.00 1474.00" xmlns="http://www.w3.org/2000/svg" xmlns:xlink="http://www.w3.org/1999/xlink">
<g id="graph1" class="graph" transform="scale(1 1) rotate(0) translate(4 1470)">
<title>Pipeline:</title>
<polygon fill="white" stroke="white" points="-4,5 -4,-1470 1329,-1470 1329,5 -4,5"/>
<g id="graph2" class="cluster"><title>clustertasks</title>
<polygon fill="none" stroke="black" points="8,-8 8,-1449 1142,-1449 1142,-8 8,-8"/>
<text text-anchor="middle" x="575" y="-1417.89" font-family="Times Roman,serif" font-size="30.0px" fill="#ff3232">Pipeline:</text>
</g>
<g id="graph3" class="cluster"><title>clusterkey1</title>
<polygon fill="#f6f4f4" stroke="#f6f4f4" points="1150,-1342 1150,-1458 1316,-1458 1316,-1342 1150,-1342"/>
<text text-anchor="middle" x="1233" y="-1426.89" font-family="Times Roman,serif" font-size="30.0px">Key:</text>
</g>
<!-- t0 -->
<g id="node2" class="node"><title>t0</title>
<polygon fill="#b8cc6e" stroke="#006000" points="1058,-1395 872,-1395 868,-1391 868,-1359 1054,-1359 1058,-1363 1058,-1395"/>
<polyline fill="none" stroke="#006000" points="1054,-1391 868,-1391 "/>
<polyline fill="none" stroke="#006000" points="1054,-1391 1054,-1359 "/>
<polyline fill="none" stroke="#006000" points="1054,-1391 1058,-1395 "/>
<text text-anchor="middle" x="963" y="-1371.39" font-family="Times Roman,serif" font-size="20.0px" fill="#006000">pipeline.indexRefbwa</text>
</g>
<!-- t3 -->
<g id="node4" class="node"><title>t3</title>
<polygon fill="#b8cc6e" stroke="#006000" points="825,-1328 659,-1328 655,-1324 655,-1292 821,-1292 825,-1296 825,-1328"/>
<polyline fill="none" stroke="#006000" points="821,-1324 655,-1324 "/>
<polyline fill="none" stroke="#006000" points="821,-1324 821,-1292 "/>
<polyline fill="none" stroke="#006000" points="821,-1324 825,-1328 "/>
<text text-anchor="middle" x="740" y="-1304.39" font-family="Times Roman,serif" font-size="20.0px" fill="#006000">pipeline.alignBWA</text>
</g>
<!-- t0&#45;&gt;t3 -->
<g id="edge71" class="edge"><title>t0&#45;&gt;t3</title>
<path fill="none" stroke="gray" d="M911.361,-1358.92C894.716,-1353.28 876.141,-1347.18 859,-1342 846.435,-1338.2 833.057,-1334.38 819.977,-1330.78"/>
<polygon fill="gray" stroke="gray" points="820.621,-1327.32 810.052,-1328.06 818.775,-1334.08 820.621,-1327.32"/>
</g>
<!-- t1 -->
<g id="node3" class="node"><title>t1</title>
<polygon fill="#b8cc6e" stroke="#006000" points="850,-1395 624,-1395 620,-1391 620,-1359 846,-1359 850,-1363 850,-1395"/>
<polyline fill="none" stroke="#006000" points="846,-1391 620,-1391 "/>
<polyline fill="none" stroke="#006000" points="846,-1391 846,-1359 "/>
<polyline fill="none" stroke="#006000" points="846,-1391 850,-1395 "/>
<text text-anchor="middle" x="735" y="-1371.39" font-family="Times Roman,serif" font-size="20.0px" fill="#006000">pipeline.indexRefSamtools</text>
</g>
<!-- t1&#45;&gt;t3 -->
<g id="edge3" class="edge"><title>t1&#45;&gt;t3</title>
<path fill="none" stroke="gray" d="M736.366,-1358.69C736.829,-1352.49 737.358,-1345.4 737.866,-1338.59"/>
<polygon fill="gray" stroke="gray" points="741.381,-1338.52 738.635,-1328.29 734.401,-1338 741.381,-1338.52"/>
</g>
<!-- t4 -->
<g id="node6" class="node"><title>t4</title>
<polygon fill="#b8cc6e" stroke="#006000" points="831,-1270 653,-1270 649,-1266 649,-1234 827,-1234 831,-1238 831,-1270"/>
<polyline fill="none" stroke="#006000" points="827,-1266 649,-1266 "/>
<polyline fill="none" stroke="#006000" points="827,-1266 827,-1234 "/>
<polyline fill="none" stroke="#006000" points="827,-1266 831,-1270 "/>
<text text-anchor="middle" x="740" y="-1246.39" font-family="Times Roman,serif" font-size="20.0px" fill="#006000">pipeline.alignToSam</text>
</g>
<!-- t3&#45;&gt;t4 -->
<g id="edge5" class="edge"><title>t3&#45;&gt;t4</title>
<path fill="none" stroke="gray" d="M740,-1291.97C740,-1288.29 740,-1284.34 740,-1280.41"/>
<polygon fill="gray" stroke="gray" points="743.5,-1280.22 740,-1270.22 736.5,-1280.22 743.5,-1280.22"/>
</g>
<!-- t5 -->
<g id="node8" class="node"><title>t5</title>
<polygon fill="#b8cc6e" stroke="#006000" points="828,-1212 656,-1212 652,-1208 652,-1176 824,-1176 828,-1180 828,-1212"/>
<polyline fill="none" stroke="#006000" points="824,-1208 652,-1208 "/>
<polyline fill="none" stroke="#006000" points="824,-1208 824,-1176 "/>
<polyline fill="none" stroke="#006000" points="824,-1208 828,-1212 "/>
<text text-anchor="middle" x="740" y="-1188.39" font-family="Times Roman,serif" font-size="20.0px" fill="#006000">pipeline.samToBam</text>
</g>
<!-- t4&#45;&gt;t5 -->
<g id="edge7" class="edge"><title>t4&#45;&gt;t5</title>
<path fill="none" stroke="gray" d="M740,-1233.97C740,-1230.29 740,-1226.34 740,-1222.41"/>
<polygon fill="gray" stroke="gray" points="743.5,-1222.22 740,-1212.22 736.5,-1222.22 743.5,-1222.22"/>
</g>
<!-- t6 -->
<g id="node10" class="node"><title>t6</title>
<polygon fill="#b8cc6e" stroke="#006000" points="726,-1154 550,-1154 546,-1150 546,-1118 722,-1118 726,-1122 726,-1154"/>
<polyline fill="none" stroke="#006000" points="722,-1150 546,-1150 "/>
<polyline fill="none" stroke="#006000" points="722,-1150 722,-1118 "/>
<polyline fill="none" stroke="#006000" points="722,-1150 726,-1154 "/>
<text text-anchor="middle" x="636" y="-1130.39" font-family="Times Roman,serif" font-size="20.0px" fill="#006000">pipeline.mergeBams</text>
</g>
<!-- t5&#45;&gt;t6 -->
<g id="edge9" class="edge"><title>t5&#45;&gt;t6</title>
<path fill="none" stroke="gray" d="M707.664,-1175.97C697.979,-1170.57 687.227,-1164.57 677.059,-1158.9"/>
<polygon fill="gray" stroke="gray" points="678.755,-1155.84 668.316,-1154.02 675.345,-1161.95 678.755,-1155.84"/>
</g>
<!-- t33 -->
<g id="node70" class="node"><title>t33</title>
<polygon fill="#b8cc6e" stroke="#006000" points="944,-1154 748,-1154 744,-1150 744,-1118 940,-1118 944,-1122 944,-1154"/>
<polyline fill="none" stroke="#006000" points="940,-1150 744,-1150 "/>
<polyline fill="none" stroke="#006000" points="940,-1150 940,-1118 "/>
<polyline fill="none" stroke="#006000" points="940,-1150 944,-1154 "/>
<text text-anchor="middle" x="844" y="-1130.39" font-family="Times Roman,serif" font-size="20.0px" fill="#006000">pipeline.countRunBam</text>
</g>
<!-- t5&#45;&gt;t33 -->
<g id="edge69" class="edge"><title>t5&#45;&gt;t33</title>
<path fill="none" stroke="gray" d="M772.336,-1175.97C782.021,-1170.57 792.773,-1164.57 802.941,-1158.9"/>
<polygon fill="gray" stroke="gray" points="804.655,-1161.95 811.684,-1154.02 801.245,-1155.84 804.655,-1161.95"/>
</g>
<!-- t8 -->
<g id="node12" class="node"><title>t8</title>
<polygon fill="#b8cc6e" stroke="#006000" points="543,-1096 311,-1096 307,-1092 307,-1060 539,-1060 543,-1064 543,-1096"/>
<polyline fill="none" stroke="#006000" points="539,-1092 307,-1092 "/>
<polyline fill="none" stroke="#006000" points="539,-1092 539,-1060 "/>
<polyline fill="none" stroke="#006000" points="539,-1092 543,-1096 "/>
<text text-anchor="middle" x="425" y="-1072.39" font-family="Times Roman,serif" font-size="20.0px" fill="#006000">pipeline.indexMergedBams</text>
</g>
<!-- t6&#45;&gt;t8 -->
<g id="edge11" class="edge"><title>t6&#45;&gt;t8</title>
<path fill="none" stroke="gray" d="M570.395,-1117.97C548.166,-1111.86 523.165,-1104.98 500.246,-1098.68"/>
<polygon fill="gray" stroke="gray" points="501.135,-1095.3 490.565,-1096.02 499.279,-1102.05 501.135,-1095.3"/>
</g>
<!-- t7 -->
<g id="node14" class="node"><title>t7</title>
<polygon fill="#b8cc6e" stroke="#006000" points="560,-1038 432,-1038 428,-1034 428,-1002 556,-1002 560,-1006 560,-1038"/>
<polyline fill="none" stroke="#006000" points="556,-1034 428,-1034 "/>
<polyline fill="none" stroke="#006000" points="556,-1034 556,-1002 "/>
<polyline fill="none" stroke="#006000" points="556,-1034 560,-1038 "/>
<text text-anchor="middle" x="494" y="-1014.39" font-family="Times Roman,serif" font-size="20.0px" fill="#006000">pipeline.dedup</text>
</g>
<!-- t6&#45;&gt;t7 -->
<g id="edge73" class="edge"><title>t6&#45;&gt;t7</title>
<path fill="none" stroke="gray" d="M600.08,-1117.94C590.213,-1111.87 580.031,-1104.46 572,-1096 559.395,-1082.73 564.302,-1073.55 552,-1060 546.74,-1054.2 540.486,-1048.81 534.063,-1043.97"/>
<polygon fill="gray" stroke="gray" points="536.076,-1041.11 525.9,-1038.16 532.016,-1046.81 536.076,-1041.11"/>
</g>
<!-- t28 -->
<g id="node66" class="node"><title>t28</title>
<polygon fill="#b8cc6e" stroke="#006000" points="841,-1096 585,-1096 581,-1092 581,-1060 837,-1060 841,-1064 841,-1096"/>
<polyline fill="none" stroke="#006000" points="837,-1092 581,-1092 "/>
<polyline fill="none" stroke="#006000" points="837,-1092 837,-1060 "/>
<polyline fill="none" stroke="#006000" points="837,-1092 841,-1096 "/>
<text text-anchor="middle" x="711" y="-1072.39" font-family="Times Roman,serif" font-size="20.0px" fill="#006000">pipeline.igvcountMergedBams</text>
</g>
<!-- t6&#45;&gt;t28 -->
<g id="edge65" class="edge"><title>t6&#45;&gt;t28</title>
<path fill="none" stroke="gray" d="M659.319,-1117.97C665.669,-1113.06 672.654,-1107.65 679.381,-1102.45"/>
<polygon fill="gray" stroke="gray" points="681.926,-1104.91 687.695,-1096.02 677.643,-1099.37 681.926,-1104.91"/>
</g>
<!-- t34 -->
<g id="node68" class="node"><title>t34</title>
<polygon fill="#b8cc6e" stroke="#006000" points="1087,-1096 863,-1096 859,-1092 859,-1060 1083,-1060 1087,-1064 1087,-1096"/>
<polyline fill="none" stroke="#006000" points="1083,-1092 859,-1092 "/>
<polyline fill="none" stroke="#006000" points="1083,-1092 1083,-1060 "/>
<polyline fill="none" stroke="#006000" points="1083,-1092 1087,-1096 "/>
<text text-anchor="middle" x="973" y="-1072.39" font-family="Times Roman,serif" font-size="20.0px" fill="#006000">pipeline.countMergedBam</text>
</g>
<!-- t6&#45;&gt;t34 -->
<g id="edge67" class="edge"><title>t6&#45;&gt;t34</title>
<path fill="none" stroke="gray" d="M726.099,-1119.57C729.101,-1119.03 732.075,-1118.51 735,-1118 773.644,-1111.24 815.859,-1104.07 853.862,-1097.7"/>
<polygon fill="gray" stroke="gray" points="854.659,-1101.12 863.943,-1096.01 853.503,-1094.21 854.659,-1101.12"/>
</g>
<!-- t8&#45;&gt;t7 -->
<g id="edge13" class="edge"><title>t8&#45;&gt;t7</title>
<path fill="none" stroke="gray" d="M446.454,-1059.97C452.111,-1055.21 458.317,-1049.99 464.324,-1044.95"/>
<polygon fill="gray" stroke="gray" points="466.919,-1047.34 472.322,-1038.22 462.415,-1041.98 466.919,-1047.34"/>
</g>
<!-- t10 -->
<g id="node16" class="node"><title>t10</title>
<polygon fill="#b8cc6e" stroke="#006000" points="398,-980 158,-980 154,-976 154,-944 394,-944 398,-948 398,-980"/>
<polyline fill="none" stroke="#006000" points="394,-976 154,-976 "/>
<polyline fill="none" stroke="#006000" points="394,-976 394,-944 "/>
<polyline fill="none" stroke="#006000" points="394,-976 398,-980 "/>
<text text-anchor="middle" x="276" y="-956.392" font-family="Times Roman,serif" font-size="20.0px" fill="#006000">pipeline.indexDedupedBams</text>
</g>
<!-- t7&#45;&gt;t10 -->
<g id="edge15" class="edge"><title>t7&#45;&gt;t10</title>
<path fill="none" stroke="gray" d="M427.705,-1002.36C404.364,-996.152 377.92,-989.116 353.723,-982.679"/>
<polygon fill="gray" stroke="gray" points="354.427,-979.244 343.863,-980.055 352.627,-986.009 354.427,-979.244"/>
</g>
<!-- t9 -->
<g id="node18" class="node"><title>t9</title>
<polygon fill="#b8cc6e" stroke="#006000" points="451,-922 247,-922 243,-918 243,-886 447,-886 451,-890 451,-922"/>
<polyline fill="none" stroke="#006000" points="447,-918 243,-918 "/>
<polyline fill="none" stroke="#006000" points="447,-918 447,-886 "/>
<polyline fill="none" stroke="#006000" points="447,-918 451,-922 "/>
<text text-anchor="middle" x="347" y="-898.392" font-family="Times Roman,serif" font-size="20.0px" fill="#006000">pipeline.realignIntervals</text>
</g>
<!-- t7&#45;&gt;t9 -->
<g id="edge75" class="edge"><title>t7&#45;&gt;t9</title>
<path fill="none" stroke="gray" d="M456.029,-1001.99C445.808,-995.962 435.298,-988.56 427,-980 414.261,-966.858 419.408,-957.455 407,-944 401.629,-938.176 395.247,-932.787 388.683,-927.974"/>
<polygon fill="gray" stroke="gray" points="390.547,-925.008 380.332,-922.196 386.564,-930.764 390.547,-925.008"/>
</g>
<!-- t30 -->
<g id="node62" class="node"><title>t30</title>
<polygon fill="#b8cc6e" stroke="#006000" points="706,-980 440,-980 436,-976 436,-944 702,-944 706,-948 706,-980"/>
<polyline fill="none" stroke="#006000" points="702,-976 436,-976 "/>
<polyline fill="none" stroke="#006000" points="702,-976 702,-944 "/>
<polyline fill="none" stroke="#006000" points="702,-976 706,-980 "/>
<text text-anchor="middle" x="571" y="-956.392" font-family="Times Roman,serif" font-size="20.0px" fill="#006000">pipeline.igvcountDedupedBams</text>
</g>
<!-- t7&#45;&gt;t30 -->
<g id="edge61" class="edge"><title>t7&#45;&gt;t30</title>
<path fill="none" stroke="gray" d="M517.941,-1001.97C524.605,-996.947 531.951,-991.414 538.997,-986.106"/>
<polygon fill="gray" stroke="gray" points="541.192,-988.835 547.074,-980.022 536.98,-983.243 541.192,-988.835"/>
</g>
<!-- t36 -->
<g id="node64" class="node"><title>t36</title>
<polygon fill="#b8cc6e" stroke="#006000" points="962,-980 728,-980 724,-976 724,-944 958,-944 962,-948 962,-980"/>
<polyline fill="none" stroke="#006000" points="958,-976 724,-976 "/>
<polyline fill="none" stroke="#006000" points="958,-976 958,-944 "/>
<polyline fill="none" stroke="#006000" points="958,-976 962,-980 "/>
<text text-anchor="middle" x="843" y="-956.392" font-family="Times Roman,serif" font-size="20.0px" fill="#006000">pipeline.countDedupedBam</text>
</g>
<!-- t7&#45;&gt;t36 -->
<g id="edge63" class="edge"><title>t7&#45;&gt;t36</title>
<path fill="none" stroke="gray" d="M560.055,-1009.02C606.377,-1001.32 669.592,-990.818 724.522,-981.69"/>
<polygon fill="gray" stroke="gray" points="725.386,-985.094 734.676,-980.002 724.238,-978.189 725.386,-985.094"/>
</g>
<!-- t10&#45;&gt;t9 -->
<g id="edge17" class="edge"><title>t10&#45;&gt;t9</title>
<path fill="none" stroke="gray" d="M298.076,-943.966C304.029,-939.103 310.573,-933.757 316.885,-928.601"/>
<polygon fill="gray" stroke="gray" points="319.163,-931.259 324.693,-922.222 314.735,-925.838 319.163,-931.259"/>
</g>
<!-- t11 -->
<g id="node20" class="node"><title>t11</title>
<polygon fill="#b8cc6e" stroke="#006000" points="417,-864 281,-864 277,-860 277,-828 413,-828 417,-832 417,-864"/>
<polyline fill="none" stroke="#006000" points="413,-860 277,-860 "/>
<polyline fill="none" stroke="#006000" points="413,-860 413,-828 "/>
<polyline fill="none" stroke="#006000" points="413,-860 417,-864 "/>
<text text-anchor="middle" x="347" y="-840.392" font-family="Times Roman,serif" font-size="20.0px" fill="#006000">pipeline.realign</text>
</g>
<!-- t9&#45;&gt;t11 -->
<g id="edge19" class="edge"><title>t9&#45;&gt;t11</title>
<path fill="none" stroke="gray" d="M347,-885.966C347,-882.292 347,-878.342 347,-874.406"/>
<polygon fill="gray" stroke="gray" points="350.5,-874.222 347,-864.222 343.5,-874.222 350.5,-874.222"/>
</g>
<!-- t12 -->
<g id="node22" class="node"><title>t12</title>
<polygon fill="#b8cc6e" stroke="#006000" points="262,-806 20,-806 16,-802 16,-770 258,-770 262,-774 262,-806"/>
<polyline fill="none" stroke="#006000" points="258,-802 16,-802 "/>
<polyline fill="none" stroke="#006000" points="258,-802 258,-770 "/>
<polyline fill="none" stroke="#006000" points="258,-802 262,-806 "/>
<text text-anchor="middle" x="139" y="-782.392" font-family="Times Roman,serif" font-size="20.0px" fill="#006000">pipeline.indexRealignedBam</text>
</g>
<!-- t11&#45;&gt;t12 -->
<g id="edge21" class="edge"><title>t11&#45;&gt;t12</title>
<path fill="none" stroke="gray" d="M282.328,-827.966C260.512,-821.883 235.989,-815.045 213.478,-808.768"/>
<polygon fill="gray" stroke="gray" points="214.205,-805.337 203.632,-806.022 212.325,-812.08 214.205,-805.337"/>
</g>
<!-- t13 -->
<g id="node24" class="node"><title>t13</title>
<polygon fill="#b8cc6e" stroke="#006000" points="228,-748 78,-748 74,-744 74,-712 224,-712 228,-716 228,-748"/>
<polyline fill="none" stroke="#006000" points="224,-744 74,-744 "/>
<polyline fill="none" stroke="#006000" points="224,-744 224,-712 "/>
<polyline fill="none" stroke="#006000" points="224,-744 228,-748 "/>
<text text-anchor="middle" x="151" y="-724.392" font-family="Times Roman,serif" font-size="20.0px" fill="#006000">pipeline.leftAlign</text>
</g>
<!-- t11&#45;&gt;t13 -->
<g id="edge77" class="edge"><title>t11&#45;&gt;t13</title>
<path fill="none" stroke="gray" d="M320.824,-827.864C312.439,-821.447 303.413,-813.857 296,-806 282.632,-791.831 286.592,-781.677 271,-770 261.014,-762.521 249.55,-756.392 237.756,-751.382"/>
<polygon fill="gray" stroke="gray" points="238.834,-748.044 228.249,-747.599 236.246,-754.548 238.834,-748.044"/>
</g>
<!-- t16 -->
<g id="node30" class="node"><title>t16</title>
<polygon fill="#b8cc6e" stroke="#006000" points="422,-574 184,-574 180,-570 180,-538 418,-538 422,-542 422,-574"/>
<polyline fill="none" stroke="#006000" points="418,-570 180,-570 "/>
<polyline fill="none" stroke="#006000" points="418,-570 418,-538 "/>
<polyline fill="none" stroke="#006000" points="418,-570 422,-574 "/>
<text text-anchor="middle" x="301" y="-550.392" font-family="Times Roman,serif" font-size="20.0px" fill="#006000">pipeline.baseQualRecalPrint</text>
</g>
<!-- t11&#45;&gt;t16 -->
<g id="edge81" class="edge"><title>t11&#45;&gt;t16</title>
<path fill="none" stroke="gray" d="M326.412,-827.801C320.506,-821.488 314.676,-813.976 311,-806 296.741,-775.058 301,-764.069 301,-730 301,-730 301,-730 301,-672 301,-642.097 301,-607.858 301,-584.372"/>
<polygon fill="gray" stroke="gray" points="304.5,-584.083 301,-574.083 297.5,-584.083 304.5,-584.083"/>
</g>
<!-- t27 -->
<g id="node56" class="node"><title>t27</title>
<polygon fill="#b8cc6e" stroke="#006000" points="574,-806 324,-806 320,-802 320,-770 570,-770 574,-774 574,-806"/>
<polyline fill="none" stroke="#006000" points="570,-802 320,-802 "/>
<polyline fill="none" stroke="#006000" points="570,-802 570,-770 "/>
<polyline fill="none" stroke="#006000" points="570,-802 574,-806 "/>
<text text-anchor="middle" x="447" y="-782.392" font-family="Times Roman,serif" font-size="20.0px" fill="#006000">pipeline.indexRealignedBams</text>
</g>
<!-- t11&#45;&gt;t27 -->
<g id="edge55" class="edge"><title>t11&#45;&gt;t27</title>
<path fill="none" stroke="gray" d="M378.092,-827.966C387.311,-822.62 397.535,-816.69 407.223,-811.07"/>
<polygon fill="gray" stroke="gray" points="409.032,-814.067 415.927,-806.022 405.52,-808.012 409.032,-814.067"/>
</g>
<!-- t29 -->
<g id="node58" class="node"><title>t29</title>
<polygon fill="#b8cc6e" stroke="#006000" points="870,-806 596,-806 592,-802 592,-770 866,-770 870,-774 870,-806"/>
<polyline fill="none" stroke="#006000" points="866,-802 592,-802 "/>
<polyline fill="none" stroke="#006000" points="866,-802 866,-770 "/>
<polyline fill="none" stroke="#006000" points="866,-802 870,-806 "/>
<text text-anchor="middle" x="731" y="-782.392" font-family="Times Roman,serif" font-size="20.0px" fill="#006000">pipeline.igvcountRealignedBams</text>
</g>
<!-- t11&#45;&gt;t29 -->
<g id="edge57" class="edge"><title>t11&#45;&gt;t29</title>
<path fill="none" stroke="gray" d="M417.432,-835.362C468.809,-827.602 539.916,-816.862 601.43,-807.57"/>
<polygon fill="gray" stroke="gray" points="602.244,-810.987 611.609,-806.033 601.198,-804.066 602.244,-810.987"/>
</g>
<!-- t35 -->
<g id="node60" class="node"><title>t35</title>
<polygon fill="#b8cc6e" stroke="#006000" points="1134,-806 892,-806 888,-802 888,-770 1130,-770 1134,-774 1134,-806"/>
<polyline fill="none" stroke="#006000" points="1130,-802 888,-802 "/>
<polyline fill="none" stroke="#006000" points="1130,-802 1130,-770 "/>
<polyline fill="none" stroke="#006000" points="1130,-802 1134,-806 "/>
<text text-anchor="middle" x="1011" y="-782.392" font-family="Times Roman,serif" font-size="20.0px" fill="#006000">pipeline.countRealignedBam</text>
</g>
<!-- t11&#45;&gt;t35 -->
<g id="edge59" class="edge"><title>t11&#45;&gt;t35</title>
<path fill="none" stroke="gray" d="M417.261,-842.075C517.235,-836.187 706.512,-823.926 877.765,-806.096"/>
<polygon fill="gray" stroke="gray" points="878.137,-809.576 887.717,-805.051 877.406,-802.614 878.137,-809.576"/>
</g>
<!-- t12&#45;&gt;t13 -->
<g id="edge23" class="edge"><title>t12&#45;&gt;t13</title>
<path fill="none" stroke="gray" d="M142.731,-769.966C143.514,-766.184 144.357,-762.109 145.195,-758.059"/>
<polygon fill="gray" stroke="gray" points="148.631,-758.724 147.23,-748.222 141.776,-757.306 148.631,-758.724"/>
</g>
<!-- t14 -->
<g id="node26" class="node"><title>t14</title>
<polygon fill="#b8cc6e" stroke="#006000" points="282,-690 50,-690 46,-686 46,-654 278,-654 282,-658 282,-690"/>
<polyline fill="none" stroke="#006000" points="278,-686 46,-686 "/>
<polyline fill="none" stroke="#006000" points="278,-686 278,-654 "/>
<polyline fill="none" stroke="#006000" points="278,-686 282,-690 "/>
<text text-anchor="middle" x="164" y="-666.392" font-family="Times Roman,serif" font-size="20.0px" fill="#006000">pipeline.indexleftAlignBam</text>
</g>
<!-- t13&#45;&gt;t14 -->
<g id="edge25" class="edge"><title>t13&#45;&gt;t14</title>
<path fill="none" stroke="gray" d="M155.042,-711.966C155.89,-708.184 156.803,-704.109 157.711,-700.059"/>
<polygon fill="gray" stroke="gray" points="161.144,-700.746 159.916,-690.222 154.313,-699.215 161.144,-700.746"/>
</g>
<!-- t15 -->
<g id="node28" class="node"><title>t15</title>
<polygon fill="#b8cc6e" stroke="#006000" points="266,-632 66,-632 62,-628 62,-596 262,-596 266,-600 266,-632"/>
<polyline fill="none" stroke="#006000" points="262,-628 62,-628 "/>
<polyline fill="none" stroke="#006000" points="262,-628 262,-596 "/>
<polyline fill="none" stroke="#006000" points="262,-628 266,-632 "/>
<text text-anchor="middle" x="164" y="-608.392" font-family="Times Roman,serif" font-size="20.0px" fill="#006000">pipeline.baseQualRecal</text>
</g>
<!-- t13&#45;&gt;t15 -->
<g id="edge79" class="edge"><title>t13&#45;&gt;t15</title>
<path fill="none" stroke="gray" d="M78.9771,-711.981C59.7657,-705.652 42.7315,-698.085 37,-690 27.7469,-676.947 27.5371,-666.902 37,-654 42.1429,-646.988 55.2318,-640.643 71.1519,-635.178"/>
<polygon fill="gray" stroke="gray" points="72.3699,-638.463 80.814,-632.064 70.2224,-631.8 72.3699,-638.463"/>
</g>
<!-- t14&#45;&gt;t15 -->
<g id="edge27" class="edge"><title>t14&#45;&gt;t15</title>
<path fill="none" stroke="gray" d="M164,-653.966C164,-650.292 164,-646.342 164,-642.406"/>
<polygon fill="gray" stroke="gray" points="167.5,-642.222 164,-632.222 160.5,-642.222 167.5,-642.222"/>
</g>
<!-- t15&#45;&gt;t16 -->
<g id="edge29" class="edge"><title>t15&#45;&gt;t16</title>
<path fill="none" stroke="gray" d="M206.597,-595.966C219.999,-590.292 234.953,-583.962 248.935,-578.042"/>
<polygon fill="gray" stroke="gray" points="250.585,-581.144 258.43,-574.022 247.856,-574.698 250.585,-581.144"/>
</g>
<!-- t17 -->
<g id="node32" class="node"><title>t17</title>
<polygon fill="#b8cc6e" stroke="#006000" points="446,-516 160,-516 156,-512 156,-480 442,-480 446,-484 446,-516"/>
<polyline fill="none" stroke="#006000" points="442,-512 156,-512 "/>
<polyline fill="none" stroke="#006000" points="442,-512 442,-480 "/>
<polyline fill="none" stroke="#006000" points="442,-512 446,-516 "/>
<text text-anchor="middle" x="301" y="-492.392" font-family="Times Roman,serif" font-size="20.0px" fill="#006000">pipeline.indexBaseQualRecalBam</text>
</g>
<!-- t16&#45;&gt;t17 -->
<g id="edge31" class="edge"><title>t16&#45;&gt;t17</title>
<path fill="none" stroke="gray" d="M301,-537.966C301,-534.292 301,-530.342 301,-526.406"/>
<polygon fill="gray" stroke="gray" points="304.5,-526.222 301,-516.222 297.5,-526.222 304.5,-526.222"/>
</g>
<!-- t18 -->
<g id="node34" class="node"><title>t18</title>
<polygon fill="#b8cc6e" stroke="#006000" points="314,-458 166,-458 162,-454 162,-422 310,-422 314,-426 314,-458"/>
<polyline fill="none" stroke="#006000" points="310,-454 162,-454 "/>
<polyline fill="none" stroke="#006000" points="310,-454 310,-422 "/>
<polyline fill="none" stroke="#006000" points="310,-454 314,-458 "/>
<text text-anchor="middle" x="238" y="-434.392" font-family="Times Roman,serif" font-size="20.0px" fill="#006000">pipeline.callHAP</text>
</g>
<!-- t16&#45;&gt;t18 -->
<g id="edge83" class="edge"><title>t16&#45;&gt;t18</title>
<path fill="none" stroke="gray" d="M193.486,-537.992C171.997,-532.193 153.887,-524.904 147,-516 137.211,-503.344 138.254,-493.398 147,-480 151.151,-473.642 156.563,-468.287 162.68,-463.78"/>
<polygon fill="gray" stroke="gray" points="164.906,-466.509 171.407,-458.143 161.108,-460.629 164.906,-466.509"/>
</g>
<!-- t32 -->
<g id="node52" class="node"><title>t32</title>
<polygon fill="#b8cc6e" stroke="#006000" points="598,-458 336,-458 332,-454 332,-422 594,-422 598,-426 598,-458"/>
<polyline fill="none" stroke="#006000" points="594,-454 332,-454 "/>
<polyline fill="none" stroke="#006000" points="594,-454 594,-422 "/>
<polyline fill="none" stroke="#006000" points="594,-454 598,-458 "/>
<text text-anchor="middle" x="465" y="-434.392" font-family="Times Roman,serif" font-size="20.0px" fill="#006000">pipeline.finalDepthOfCoverage</text>
</g>
<!-- t16&#45;&gt;t32 -->
<g id="edge89" class="edge"><title>t16&#45;&gt;t32</title>
<path fill="none" stroke="gray" d="M405.335,-537.972C427.867,-532.075 447.272,-524.745 455,-516 466.242,-503.279 468.763,-484.365 468.463,-468.589"/>
<polygon fill="gray" stroke="gray" points="471.939,-468.068 467.878,-458.283 464.951,-468.465 471.939,-468.068"/>
</g>
<!-- t31 -->
<g id="node54" class="node"><title>t31</title>
<polygon fill="#b8cc6e" stroke="#006000" points="782,-516 488,-516 484,-512 484,-480 778,-480 782,-484 782,-516"/>
<polyline fill="none" stroke="#006000" points="778,-512 484,-512 "/>
<polyline fill="none" stroke="#006000" points="778,-512 778,-480 "/>
<polyline fill="none" stroke="#006000" points="778,-512 782,-516 "/>
<text text-anchor="middle" x="633" y="-492.392" font-family="Times Roman,serif" font-size="20.0px" fill="#006000">pipeline.igvcountRecalibratedBams</text>
</g>
<!-- t16&#45;&gt;t31 -->
<g id="edge53" class="edge"><title>t16&#45;&gt;t31</title>
<path fill="none" stroke="gray" d="M404.227,-537.966C440.921,-531.556 482.415,-524.307 519.892,-517.76"/>
<polygon fill="gray" stroke="gray" points="520.588,-521.191 529.837,-516.022 519.384,-514.296 520.588,-521.191"/>
</g>
<!-- t17&#45;&gt;t18 -->
<g id="edge33" class="edge"><title>t17&#45;&gt;t18</title>
<path fill="none" stroke="gray" d="M281.412,-479.966C276.364,-475.319 270.837,-470.231 265.47,-465.29"/>
<polygon fill="gray" stroke="gray" points="267.521,-462.42 257.793,-458.222 262.78,-467.57 267.521,-462.42"/>
</g>
<!-- t17&#45;&gt;t32 -->
<g id="edge51" class="edge"><title>t17&#45;&gt;t32</title>
<path fill="none" stroke="gray" d="M351.992,-479.966C368.652,-474.074 387.316,-467.474 404.601,-461.361"/>
<polygon fill="gray" stroke="gray" points="405.779,-464.656 414.04,-458.022 403.445,-458.057 405.779,-464.656"/>
</g>
<!-- t19 -->
<g id="node36" class="node"><title>t19</title>
<polygon fill="#b8cc6e" stroke="#006000" points="286,-400 20,-400 16,-396 16,-364 282,-364 286,-368 286,-400"/>
<polyline fill="none" stroke="#006000" points="282,-396 16,-396 "/>
<polyline fill="none" stroke="#006000" points="282,-396 282,-364 "/>
<polyline fill="none" stroke="#006000" points="282,-396 286,-400 "/>
<text text-anchor="middle" x="151" y="-376.392" font-family="Times Roman,serif" font-size="20.0px" fill="#006000">pipeline.callVariantRecalibrator</text>
</g>
<!-- t18&#45;&gt;t19 -->
<g id="edge35" class="edge"><title>t18&#45;&gt;t19</title>
<path fill="none" stroke="gray" d="M210.95,-421.966C203.175,-416.783 194.579,-411.052 186.381,-405.587"/>
<polygon fill="gray" stroke="gray" points="188.296,-402.657 178.034,-400.022 184.413,-408.482 188.296,-402.657"/>
</g>
<!-- t20 -->
<g id="node38" class="node"><title>t20</title>
<polygon fill="#b8cc6e" stroke="#006000" points="285,-342 21,-342 17,-338 17,-306 281,-306 285,-310 285,-342"/>
<polyline fill="none" stroke="#006000" points="281,-338 17,-338 "/>
<polyline fill="none" stroke="#006000" points="281,-338 281,-306 "/>
<polyline fill="none" stroke="#006000" points="281,-338 285,-342 "/>
<text text-anchor="middle" x="151" y="-318.392" font-family="Times Roman,serif" font-size="20.0px" fill="#006000">pipeline.callApplyRecalibration</text>
</g>
<!-- t18&#45;&gt;t20 -->
<g id="edge85" class="edge"><title>t18&#45;&gt;t20</title>
<path fill="none" stroke="gray" d="M274.864,-421.873C282.936,-416.06 290.427,-408.796 295,-400 302.381,-385.804 304.682,-376.738 295,-364 289.403,-356.636 275.754,-350.271 258.973,-344.921"/>
<polygon fill="gray" stroke="gray" points="259.942,-341.557 249.359,-342.052 257.941,-348.265 259.942,-341.557"/>
</g>
<!-- t21 -->
<g id="node42" class="node"><title>t21</title>
<polygon fill="#b8cc6e" stroke="#006000" points="497,-342 307,-342 303,-338 303,-306 493,-306 497,-310 497,-342"/>
<polyline fill="none" stroke="#006000" points="493,-338 303,-338 "/>
<polyline fill="none" stroke="#006000" points="493,-338 493,-306 "/>
<polyline fill="none" stroke="#006000" points="493,-338 497,-342 "/>
<text text-anchor="middle" x="400" y="-318.392" font-family="Times Roman,serif" font-size="20.0px" fill="#006000">pipeline.filterHapVcfs</text>
</g>
<!-- t18&#45;&gt;t21 -->
<g id="edge41" class="edge"><title>t18&#45;&gt;t21</title>
<path fill="none" stroke="gray" d="M269.732,-421.86C280.769,-415.266 293.107,-407.569 304,-400 327.114,-383.94 351.999,-364.162 370.64,-348.808"/>
<polygon fill="gray" stroke="gray" points="373.015,-351.386 378.479,-342.309 368.547,-345.997 373.015,-351.386"/>
</g>
<!-- t19&#45;&gt;t20 -->
<g id="edge37" class="edge"><title>t19&#45;&gt;t20</title>
<path fill="none" stroke="gray" d="M151,-363.966C151,-360.292 151,-356.342 151,-352.406"/>
<polygon fill="gray" stroke="gray" points="154.5,-352.222 151,-342.222 147.5,-352.222 154.5,-352.222"/>
</g>
<!-- t22 -->
<g id="node40" class="node"><title>t22</title>
<polygon fill="#b8cc6e" stroke="#006000" points="342,-284 58,-284 54,-280 54,-248 338,-248 342,-252 342,-284"/>
<polyline fill="none" stroke="#006000" points="338,-280 54,-280 "/>
<polyline fill="none" stroke="#006000" points="338,-280 338,-248 "/>
<polyline fill="none" stroke="#006000" points="338,-280 342,-284 "/>
<text text-anchor="middle" x="198" y="-260.392" font-family="Times Roman,serif" font-size="20.0px" fill="#006000">pipeline.filterHapVcfsAfterVQSR</text>
</g>
<!-- t20&#45;&gt;t22 -->
<g id="edge39" class="edge"><title>t20&#45;&gt;t22</title>
<path fill="none" stroke="gray" d="M165.613,-305.966C169.117,-301.643 172.929,-296.939 176.667,-292.326"/>
<polygon fill="gray" stroke="gray" points="179.657,-294.195 183.234,-284.222 174.219,-289.788 179.657,-294.195"/>
</g>
<!-- t23 -->
<g id="node44" class="node"><title>t23</title>
<polygon fill="#b8cc6e" stroke="#006000" points="417,-226 165,-226 161,-222 161,-190 413,-190 417,-194 417,-226"/>
<polyline fill="none" stroke="#006000" points="413,-222 161,-222 "/>
<polyline fill="none" stroke="#006000" points="413,-222 413,-190 "/>
<polyline fill="none" stroke="#006000" points="413,-222 417,-226 "/>
<text text-anchor="middle" x="289" y="-202.392" font-family="Times Roman,serif" font-size="20.0px" fill="#006000">pipeline.getSnpeffAnnotations</text>
</g>
<!-- t22&#45;&gt;t23 -->
<g id="edge43" class="edge"><title>t22&#45;&gt;t23</title>
<path fill="none" stroke="gray" d="M226.294,-247.966C234.512,-242.729 243.607,-236.932 252.263,-231.415"/>
<polygon fill="gray" stroke="gray" points="254.172,-234.349 260.723,-226.022 250.409,-228.446 254.172,-234.349"/>
</g>
<!-- t21&#45;&gt;t23 -->
<g id="edge87" class="edge"><title>t21&#45;&gt;t23</title>
<path fill="none" stroke="gray" d="M391.171,-305.881C382.538,-289.44 368.204,-265.209 351,-248 345.205,-242.204 338.434,-236.806 331.537,-231.97"/>
<polygon fill="gray" stroke="gray" points="333.061,-228.78 322.796,-226.156 329.184,-234.609 333.061,-228.78"/>
</g>
<!-- t24 -->
<g id="node46" class="node"><title>t24</title>
<polygon fill="#b8cc6e" stroke="#006000" points="380,-168 202,-168 198,-164 198,-132 376,-132 380,-136 380,-168"/>
<polyline fill="none" stroke="#006000" points="376,-164 198,-164 "/>
<polyline fill="none" stroke="#006000" points="376,-164 376,-132 "/>
<polyline fill="none" stroke="#006000" points="376,-164 380,-168 "/>
<text text-anchor="middle" x="289" y="-144.392" font-family="Times Roman,serif" font-size="20.0px" fill="#006000">pipeline.filterSnpSift</text>
</g>
<!-- t23&#45;&gt;t24 -->
<g id="edge45" class="edge"><title>t23&#45;&gt;t24</title>
<path fill="none" stroke="gray" d="M289,-189.966C289,-186.292 289,-182.342 289,-178.406"/>
<polygon fill="gray" stroke="gray" points="292.5,-178.222 289,-168.222 285.5,-178.222 292.5,-178.222"/>
</g>
<!-- t25 -->
<g id="node48" class="node"><title>t25</title>
<polygon fill="#b8cc6e" stroke="#006000" points="389,-110 193,-110 189,-106 189,-74 385,-74 389,-78 389,-110"/>
<polyline fill="none" stroke="#006000" points="385,-106 189,-106 "/>
<polyline fill="none" stroke="#006000" points="385,-106 385,-74 "/>
<polyline fill="none" stroke="#006000" points="385,-106 389,-110 "/>
<text text-anchor="middle" x="289" y="-86.392" font-family="Times Roman,serif" font-size="20.0px" fill="#006000">pipeline.vcfIndexSNPs</text>
</g>
<!-- t24&#45;&gt;t25 -->
<g id="edge47" class="edge"><title>t24&#45;&gt;t25</title>
<path fill="none" stroke="gray" d="M289,-131.966C289,-128.292 289,-124.342 289,-120.406"/>
<polygon fill="gray" stroke="gray" points="292.5,-120.222 289,-110.222 285.5,-120.222 292.5,-120.222"/>
</g>
<!-- t26 -->
<g id="node50" class="node"><title>t26</title>
<polygon fill="#b8cc6e" stroke="#006000" points="380,-52 202,-52 198,-48 198,-16 376,-16 380,-20 380,-52"/>
<polyline fill="none" stroke="#006000" points="376,-48 198,-48 "/>
<polyline fill="none" stroke="#006000" points="376,-48 376,-16 "/>
<polyline fill="none" stroke="#006000" points="376,-48 380,-52 "/>
<text text-anchor="middle" x="289" y="-28.392" font-family="Times Roman,serif" font-size="20.0px" fill="#006000">pipeline.mergeVCFs</text>
</g>
<!-- t25&#45;&gt;t26 -->
<g id="edge49" class="edge"><title>t25&#45;&gt;t26</title>
<path fill="none" stroke="gray" d="M289,-73.9664C289,-70.2918 289,-66.3418 289,-62.4063"/>
<polygon fill="gray" stroke="gray" points="292.5,-62.2222 289,-52.2222 285.5,-62.2223 292.5,-62.2222"/>
</g>
<!-- t2 -->
<g id="node72" class="node"><title>t2</title>
<polygon fill="#b8cc6e" stroke="#006000" points="592,-1395 464,-1395 460,-1391 460,-1359 588,-1359 592,-1363 592,-1395"/>
<polyline fill="none" stroke="#006000" points="588,-1391 460,-1391 "/>
<polyline fill="none" stroke="#006000" points="588,-1391 588,-1359 "/>
<polyline fill="none" stroke="#006000" points="588,-1391 592,-1395 "/>
<text text-anchor="middle" x="526" y="-1371.39" font-family="Times Roman,serif" font-size="20.0px" fill="#006000">pipeline.fastqc</text>
</g>
<!-- k1_1 -->
<g id="node84" class="node"><title>k1_1</title>
<polygon fill="#b8cc6e" stroke="#006000" points="1308,-1403.5 1162,-1403.5 1158,-1399.5 1158,-1350.5 1304,-1350.5 1308,-1354.5 1308,-1403.5"/>
<polyline fill="none" stroke="#006000" points="1304,-1399.5 1158,-1399.5 "/>
<polyline fill="none" stroke="#006000" points="1304,-1399.5 1304,-1350.5 "/>
<polyline fill="none" stroke="#006000" points="1304,-1399.5 1308,-1403.5 "/>
<text text-anchor="middle" x="1233" y="-1371.39" font-family="Times Roman,serif" font-size="20.0px" fill="#006000">Up&#45;to&#45;date task</text>
</g>
</g>
</svg>
